<svg width="32" height="32" viewBox="0 0 32 32" fill="none" xmlns="http://www.w3.org/2000/svg">
  <!-- Background circle -->
  <circle cx="16" cy="16" r="16" fill="#f97316"/>
  
  <!-- Calculator icon -->
  <rect x="8" y="6" width="16" height="20" rx="2" fill="white"/>
  <rect x="10" y="8" width="12" height="4" rx="1" fill="#f97316"/>
  
  <!-- Calculator buttons -->
  <rect x="10" y="14" width="2" height="2" rx="0.5" fill="#f97316"/>
  <rect x="14" y="14" width="2" height="2" rx="0.5" fill="#f97316"/>
  <rect x="18" y="14" width="2" height="2" rx="0.5" fill="#f97316"/>
  <rect x="22" y="14" width="2" height="2" rx="0.5" fill="#f97316"/>
  
  <rect x="10" y="18" width="2" height="2" rx="0.5" fill="#f97316"/>
  <rect x="14" y="18" width="2" height="2" rx="0.5" fill="#f97316"/>
  <rect x="18" y="18" width="2" height="2" rx="0.5" fill="#f97316"/>
  <rect x="22" y="18" width="2" height="2" rx="0.5" fill="#f97316"/>
  
  <rect x="10" y="22" width="2" height="2" rx="0.5" fill="#f97316"/>
  <rect x="14" y="22" width="2" height="2" rx="0.5" fill="#f97316"/>
  <rect x="18" y="22" width="2" height="2" rx="0.5" fill="#f97316"/>
  <rect x="22" y="22" width="2" height="2" rx="0.5" fill="#f97316"/>
</svg> 